<svg width="1846" height="1080" viewBox="0 0 1846 1080" fill="none" xmlns="http://www.w3.org/2000/svg">
<path opacity="0.2" d="M199 811.5C199 866.452 154.452 911 99.5 911C44.5477 911 0 866.452 0 811.5C0 756.548 44.5477 712 99.5 712C154.452 712 199 756.548 199 811.5Z" fill="white"/>
<path d="M239 540.756C239 511.398 251.733 485.014 271.978 466.823L869.196 0H1846V444.059L1356.82 826.206C1339.01 843.06 1314.97 853.396 1288.52 853.396C1233.63 853.396 1189.14 808.908 1189.14 754.03C1189.14 725.232 1201.39 699.296 1220.97 681.148L1220.48 680.521L1362.36 569.687C1348.83 577.491 1333.13 581.956 1316.39 581.956C1265.52 581.956 1224.29 540.724 1224.29 489.861C1224.29 479.651 1225.95 469.828 1229.02 460.65L460.742 1060.83L460.503 1060.52C443.984 1072.76 423.536 1080 401.397 1080C346.512 1080 302.02 1035.51 302.02 980.634C302.02 945.746 320.001 915.059 347.202 897.33L725.799 601.569C712.679 608.394 697.767 612.251 681.955 612.251C629.413 612.251 586.82 569.662 586.82 517.126C586.82 492.603 596.1 470.248 611.341 453.379L394.063 623.068C378.178 633.833 359.012 640.122 338.377 640.122C283.493 640.122 239 595.634 239 540.756Z" fill="white" fill-opacity="0.2"/>
<path opacity="0.5" fill-rule="evenodd" clip-rule="evenodd" d="M213.526 1020.76C214.188 1022.49 213.325 1024.43 211.597 1025.09L203.869 1028.05L206.83 1035.78C207.492 1037.51 206.628 1039.44 204.9 1040.11L204.032 1040.44C202.305 1041.1 200.368 1040.24 199.706 1038.51L196.745 1030.78L189.017 1033.74C187.289 1034.4 185.352 1033.54 184.691 1031.81L184.358 1030.94C183.696 1029.22 184.56 1027.28 186.287 1026.62L194.015 1023.66L191.054 1015.93C190.393 1014.2 191.257 1012.26 192.984 1011.6L193.852 1011.27C195.579 1010.61 197.516 1011.47 198.178 1013.2L201.139 1020.93L208.868 1017.97C210.596 1017.3 212.532 1018.17 213.194 1019.9L213.526 1020.76Z" fill="white"/>
<path opacity="0.5" fill-rule="evenodd" clip-rule="evenodd" d="M47.6253 1019.01C47.9823 1019.94 47.5167 1020.99 46.5846 1021.35L42.4155 1022.94L44.0129 1027.11C44.3699 1028.04 43.9038 1029.09 42.972 1029.45L42.5036 1029.63C41.5719 1029.98 40.527 1029.52 40.1699 1028.58L38.5725 1024.42L34.4034 1026.01C33.4716 1026.37 32.4268 1025.9 32.0698 1024.97L31.8903 1024.5C31.5333 1023.57 31.9992 1022.53 32.931 1022.17L37.1001 1020.57L35.5028 1016.4C35.1457 1015.47 35.6118 1014.43 36.5436 1014.07L37.012 1013.89C37.9438 1013.53 38.9887 1014 39.3457 1014.93L40.9431 1019.1L45.1122 1017.5C46.0443 1017.15 47.0889 1017.61 47.4459 1018.54L47.6253 1019.01Z" fill="white"/>
<path opacity="0.5" fill-rule="evenodd" clip-rule="evenodd" d="M106.369 952.275C105.825 953.111 104.706 953.348 103.87 952.804L100.127 950.37L97.6927 954.113C97.1486 954.95 96.0294 955.187 95.193 954.643L94.7724 954.369C93.936 953.825 93.6987 952.706 94.2427 951.869L96.6768 948.127L92.934 945.693C92.0974 945.148 91.8604 944.029 92.4044 943.193L92.6779 942.772C93.2219 941.936 94.341 941.698 95.1776 942.243L98.9204 944.677L101.354 940.934C101.899 940.097 103.018 939.86 103.854 940.404L104.275 940.678C105.111 941.222 105.349 942.341 104.804 943.177L102.37 946.92L106.113 949.354C106.95 949.898 107.187 951.018 106.643 951.854L106.369 952.275Z" fill="white"/>
<path opacity="0.5" fill-rule="evenodd" clip-rule="evenodd" d="M1312.81 1062.42C1313.63 1064.56 1312.56 1066.96 1310.42 1067.78L1300.84 1071.45L1304.51 1081.04C1305.33 1083.18 1304.26 1085.58 1302.12 1086.4L1301.04 1086.81C1298.9 1087.63 1296.5 1086.56 1295.68 1084.42L1292 1074.84L1282.42 1078.51C1280.28 1079.33 1277.88 1078.26 1277.06 1076.12L1276.64 1075.04C1275.82 1072.9 1276.89 1070.5 1279.04 1069.68L1288.62 1066L1284.95 1056.42C1284.13 1054.28 1285.2 1051.88 1287.34 1051.06L1288.42 1050.64C1290.56 1049.82 1292.96 1050.89 1293.78 1053.04L1297.45 1062.62L1307.04 1058.95C1309.18 1058.13 1311.58 1059.2 1312.4 1061.34L1312.81 1062.42Z" fill="white"/>
<path opacity="0.5" fill-rule="evenodd" clip-rule="evenodd" d="M1481.33 1027.25C1481.57 1027.89 1481.26 1028.6 1480.62 1028.85L1477.78 1029.93L1478.87 1032.78C1479.11 1033.41 1478.8 1034.12 1478.16 1034.37L1477.84 1034.49C1477.21 1034.73 1476.49 1034.41 1476.25 1033.78L1475.16 1030.94L1472.32 1032.03C1471.69 1032.27 1470.97 1031.95 1470.73 1031.32L1470.61 1031C1470.37 1030.36 1470.68 1029.65 1471.32 1029.41L1474.16 1028.32L1473.07 1025.48C1472.83 1024.84 1473.14 1024.13 1473.78 1023.89L1474.1 1023.76C1474.73 1023.52 1475.45 1023.84 1475.69 1024.47L1476.78 1027.31L1479.62 1026.23C1480.25 1025.98 1480.97 1026.3 1481.21 1026.94L1481.33 1027.25Z" fill="white"/>
<path fill-rule="evenodd" clip-rule="evenodd" d="M1727.33 202.765C1727.33 205.058 1725.48 206.918 1723.18 206.918H1712.92V217.181C1712.92 219.475 1711.06 221.334 1708.76 221.334H1707.61C1705.32 221.334 1703.46 219.475 1703.46 217.181V206.918H1693.2C1690.9 206.918 1689.04 205.058 1689.04 202.765V201.611C1689.04 199.318 1690.9 197.458 1693.2 197.458H1703.46V187.195C1703.46 184.901 1705.32 183.042 1707.61 183.042H1708.76C1711.06 183.042 1712.92 184.901 1712.92 187.195V197.458H1723.18C1725.48 197.458 1727.33 199.318 1727.33 201.611V202.765Z" fill="white"/>
<path fill-rule="evenodd" clip-rule="evenodd" d="M1821.47 393.919C1821.18 393.196 1820.36 392.842 1819.64 393.129L1816.4 394.415L1815.11 391.177C1814.83 390.453 1814.01 390.1 1813.28 390.387L1812.92 390.531C1812.19 390.819 1811.84 391.639 1812.13 392.362L1813.41 395.601L1810.18 396.886C1809.45 397.174 1809.1 397.994 1809.39 398.717L1809.53 399.081C1809.82 399.805 1810.64 400.159 1811.36 399.871L1814.6 398.585L1815.89 401.824C1816.17 402.547 1816.99 402.901 1817.72 402.614L1818.08 402.469C1818.8 402.182 1819.16 401.362 1818.87 400.638L1817.58 397.4L1820.82 396.114C1821.55 395.827 1821.9 395.007 1821.61 394.283L1821.47 393.919Z" fill="white"/>
<path fill-rule="evenodd" clip-rule="evenodd" d="M1706.77 354.927C1707.46 353.599 1706.94 351.962 1705.61 351.271L1699.66 348.183L1702.75 342.237C1703.44 340.907 1702.92 339.271 1701.6 338.58L1700.93 338.233C1699.6 337.543 1697.96 338.061 1697.27 339.39L1694.18 345.336L1688.24 342.247C1686.91 341.557 1685.27 342.075 1684.58 343.404L1684.23 344.072C1683.54 345.401 1684.06 347.038 1685.39 347.728L1691.34 350.817L1688.25 356.763C1687.56 358.092 1688.08 359.729 1689.4 360.419L1690.07 360.766C1691.4 361.456 1693.04 360.939 1693.73 359.61L1696.82 353.664L1702.76 356.752C1704.09 357.442 1705.73 356.924 1706.42 355.595L1706.77 354.927Z" fill="white"/>
<path fill-rule="evenodd" clip-rule="evenodd" d="M348.5 96.3631C348.881 98.6244 347.357 100.768 345.094 101.149L334.974 102.854L336.679 112.974C337.061 115.236 335.535 117.379 333.274 117.76L332.137 117.951C329.875 118.332 327.732 116.808 327.351 114.546L325.646 104.426L315.526 106.131C313.264 106.512 311.121 104.987 310.74 102.726L310.548 101.589C310.167 99.3268 311.692 97.184 313.954 96.8028L324.074 95.0976L322.369 84.9775C321.987 82.7154 323.512 80.5729 325.774 80.1918L326.911 80.0002C329.173 79.6191 331.316 81.1435 331.697 83.4056L333.402 93.5257L343.522 91.8204C345.785 91.4392 347.927 92.9646 348.308 95.2259L348.5 96.3631Z" fill="white"/>
<path fill-rule="evenodd" clip-rule="evenodd" d="M308.911 314.144C309.462 316.369 308.105 318.622 305.878 319.174L295.917 321.642L298.385 331.603C298.936 333.83 297.578 336.082 295.352 336.633L294.233 336.911C292.006 337.462 289.754 336.105 289.202 333.878L286.735 323.917L276.773 326.384C274.546 326.936 272.294 325.578 271.743 323.352L271.465 322.232C270.914 320.006 272.271 317.754 274.498 317.202L284.46 314.734L281.992 304.773C281.44 302.546 282.798 300.294 285.024 299.743L286.144 299.465C288.37 298.914 290.622 300.271 291.174 302.498L293.642 312.459L303.604 309.992C305.831 309.44 308.082 310.798 308.634 313.024L308.911 314.144Z" fill="white"/>
<path fill-rule="evenodd" clip-rule="evenodd" d="M188.7 205.057C188.7 205.877 188.035 206.543 187.215 206.543H183.543V210.215C183.543 211.035 182.877 211.7 182.057 211.7H181.644C180.823 211.7 180.158 211.035 180.158 210.215V206.543H176.486C175.665 206.543 175 205.877 175 205.057V204.644C175 203.823 175.665 203.158 176.486 203.158H180.158V199.486C180.158 198.665 180.823 198 181.644 198H182.057C182.877 198 183.543 198.665 183.543 199.486V203.158H187.215C188.035 203.158 188.7 203.823 188.7 204.644V205.057Z" fill="white"/>
</svg>
