<svg width="40" height="40" viewBox="0 0 40 40" fill="none" xmlns="http://www.w3.org/2000/svg">
<rect width="39.9979" height="40" rx="19.9989" fill="url(#paint0_linear_375_1219)"/>
<path d="M6.24121 28.76H18.53V26.0657H10.3813C11.4984 21.5971 18.3328 20.6113 18.3328 15.617C18.3328 12.9226 16.4928 10.9512 12.6813 10.9512C10.2498 10.9512 8.21267 11.674 6.76693 12.3969L7.62123 14.8941C8.93554 14.3027 10.3813 13.7112 12.1556 13.7112C13.6013 13.7112 14.9156 14.3027 14.9156 15.9455C14.9813 19.6256 6.96408 19.8885 6.24121 28.76Z" fill="white"/>
<path d="M31.13 21.8267V10.918H28.83L20.0898 22.2867V24.4553H27.9757V28.7925H31.13V24.4553H33.7586V21.8267H31.13ZM27.9757 19.2638V21.761H25.8728C25.2156 21.761 24.0328 21.8267 23.6385 21.8267L28.1071 15.7809C28.1071 16.3066 27.9757 17.8838 27.9757 19.2638Z" fill="white"/>
<defs>
<linearGradient id="paint0_linear_375_1219" x1="19.9989" y1="0" x2="19.9989" y2="40" gradientUnits="userSpaceOnUse">
<stop stop-color="#00A7F7"/>
<stop offset="1" stop-color="#01BCEE"/>
</linearGradient>
</defs>
</svg>
