<svg width="49" height="50" viewBox="0 0 49 50" fill="none" xmlns="http://www.w3.org/2000/svg">
<path fill-rule="evenodd" clip-rule="evenodd" d="M23.5066 42.3712C25.7293 42.5082 27.9566 42.1929 30.0601 41.4434C32.1636 40.694 34.1017 39.5252 35.763 38.0044C37.4243 36.4835 38.7759 34.6407 39.74 32.5819C40.7041 30.5232 41.2616 28.2892 41.3805 26.0086C41.5888 22.5536 40.7913 19.1131 39.0894 16.1239C37.3874 13.1348 34.8577 10.7318 31.8216 9.2201C28.7854 7.70843 25.3797 7.15627 22.037 7.63375C18.6942 8.11123 15.5652 9.5968 13.0473 11.9018C10.5294 14.2068 8.73616 17.2273 7.89531 20.5797C7.05446 23.9321 7.20393 27.4652 8.32474 30.7303C9.44555 33.9954 11.4871 36.8452 14.1903 38.9178C16.8934 40.9905 20.1361 42.1925 23.5066 42.3712Z" fill="url(#paint0_radial_345_5829)"/>
<g style="mix-blend-mode:multiply">
<path fill-rule="evenodd" clip-rule="evenodd" d="M28.733 41.8523C29.1682 41.7359 29.5986 41.6001 30.0195 41.4545C29.8445 39.029 27.4844 35.9971 27.4844 35.9971C28.733 37.7483 28.733 41.731 28.733 41.8523Z" fill="#414141"/>
</g>
<g style="mix-blend-mode:multiply">
<path fill-rule="evenodd" clip-rule="evenodd" d="M41.4189 24.578C38.8932 17.6604 22.0646 14.1191 23.9187 7.54102C24.3917 7.54102 24.8315 7.58467 25.3092 7.58467C29.5749 7.83779 33.5931 9.72205 36.5703 12.8654C39.5475 16.0088 41.2675 20.1829 41.3906 24.5634L41.4189 24.578Z" fill="#414141"/>
</g>
<g style="mix-blend-mode:multiply">
<path fill-rule="evenodd" clip-rule="evenodd" d="M15.168 39.5864C15.2673 39.6543 15.3572 39.7271 15.4565 39.7902C15.5558 39.8532 15.7498 39.9551 15.8917 40.0424C18.1717 41.3998 20.7287 42.1938 23.36 42.3612C29.6033 36.831 7.86047 31.5434 7.41114 23.9902C7.26477 27.058 7.90373 30.1117 9.26453 32.8478C10.6253 35.5839 12.6606 37.9071 15.168 39.5864Z" fill="#414141"/>
</g>
<path fill-rule="evenodd" clip-rule="evenodd" d="M21.2507 13.91C15.66 6.1483 20.1344 3.48506 27.3521 5.17808C29.0264 4.3728 29.7596 3.72276 29.542 3.17944C25.8575 0.952798 20.0824 0.899437 17.8357 2.36931C16.0432 3.54812 15.5749 7.2883 16.2986 9.22873C16.8992 11.0721 18.8195 12.9058 21.1466 13.8227L21.2507 13.91Z" fill="url(#paint1_radial_345_5829)"/>
<path fill-rule="evenodd" clip-rule="evenodd" d="M42.7902 38.0737C42.951 37.7438 46.924 28.7596 38.2969 19.3389C43.651 23.5981 47.397 30.278 42.7902 38.0737Z" fill="url(#paint2_radial_345_5829)"/>
<path d="M27.3948 35.8564C33.3449 43.2155 29.4239 46.9557 21.0663 44.8309C20.2954 44.6369 18.8197 46.6161 17.8643 47.2565C22.4522 48.7748 28.6908 48.6584 30.9185 47.1934C32.7111 46.0097 33.1935 43.2495 32.4793 41.2799C31.8361 39.4802 29.5847 37.5301 27.5887 35.9729L27.3948 35.8564Z" fill="url(#paint3_radial_345_5829)"/>
<path fill-rule="evenodd" clip-rule="evenodd" d="M5.99707 11.9257C-4.33753 32.111 32.7819 37.5248 19.2831 46.7855C23.5919 48.1826 33.2407 49.342 32.0535 42.1042C31.7319 39.8097 30.015 37.9711 27.6595 36.1277C22.1304 31.9849 13.0776 28.3369 9.40252 21.5405C6.75857 16.6312 6.75384 12.1392 8.04034 8.20978C11.2802 1.83548 19.0939 -0.357208 25.7109 0.0599839C44.4077 1.11267 53.7254 21.3659 46.049 36.5255V36.608L45.9307 36.8069L45.8929 36.8505L45.8787 36.8796L45.9165 36.9233L45.8787 36.9621L45.8361 37.0057C44.7526 39.0243 43.4011 40.879 41.8205 42.5166C42.3722 41.0934 42.7057 39.5911 42.8091 38.0633C53.1862 17.8392 16.0621 12.4254 29.5656 3.16467C24.9446 1.70935 20.579 1.79667 18.3655 3.27139C16.554 4.46476 16.2749 6.95821 16.9938 8.91804C19.3918 15.792 34.39 19.1684 39.3894 28.4582C42.0239 33.3674 42.0334 37.8498 40.7658 41.7889C39.1367 44.5604 36.7183 46.753 33.8366 48.071C30.4403 49.5433 26.7559 50.1827 23.0764 49.9387C19.7263 49.788 16.445 48.9143 13.4466 47.3745C10.4482 45.8348 7.80017 43.6637 5.67544 41.003C-0.336128 33.4839 -3.78415 19.3721 6.90992 7.55489C5.87882 8.69004 6.11531 10.3346 5.99707 11.9209V11.9257Z" fill="url(#paint4_radial_345_5829)"/>
<path fill-rule="evenodd" clip-rule="evenodd" d="M29.5417 3.17488C24.9207 1.71955 20.5551 1.80687 18.3415 3.2816C16.5537 4.46526 16.2746 6.95871 16.9935 8.91855C17.6793 11.0045 19.5523 12.683 21.2503 13.954C21.2503 13.954 15.305 10.5582 16.2935 5.70714C16.5046 4.56293 17.147 3.55021 18.0814 2.88866C19.8645 1.60798 23.8801 1.6953 24.32 1.73896C26.1237 1.90902 27.8846 2.40155 29.5228 3.19428L29.5417 3.17488Z" fill="url(#paint5_linear_345_5829)"/>
<path fill-rule="evenodd" clip-rule="evenodd" d="M21.2511 13.91C15.6605 6.14828 20.1349 3.48504 27.3526 5.17806C27.972 4.39443 28.7116 3.7194 29.5425 3.17942C24.9214 1.7241 20.5558 1.81142 18.3423 3.28615C16.5544 4.46496 16.2754 6.95841 16.9943 8.91824C17.595 10.7616 19.1133 12.314 21.1471 13.8324L21.2511 13.91Z" fill="url(#paint6_radial_345_5829)"/>
<path fill-rule="evenodd" clip-rule="evenodd" d="M27.4847 35.9971C33.08 43.7588 28.6529 46.5142 21.4353 44.826C20.8264 45.5894 20.0993 46.2449 19.2832 46.7664C23.8711 48.2848 28.2178 48.1684 30.4455 46.7034C32.2381 45.5197 32.5503 42.9875 31.8361 41.0179C31.1928 39.2182 29.6793 37.661 27.6786 36.1086L27.4847 35.9971Z" fill="url(#paint7_radial_345_5829)"/>
<path fill-rule="evenodd" clip-rule="evenodd" d="M42.7902 38.0737C42.951 37.7438 46.924 28.7596 38.2969 19.3389C43.249 23.928 47.0848 29.7396 42.7902 38.0737Z" fill="url(#paint8_radial_345_5829)"/>
<path fill-rule="evenodd" clip-rule="evenodd" d="M5.99754 11.9258C5.87929 12.2168 1.90627 21.201 10.4908 30.6606C5.50091 26.0327 1.74545 20.2211 5.99754 11.9258Z" fill="url(#paint9_radial_345_5829)"/>
<defs>
<radialGradient id="paint0_radial_345_5829" cx="0" cy="0" r="1" gradientUnits="userSpaceOnUse" gradientTransform="translate(53.4528 16.8325) rotate(45.7252) scale(56.3496 56.3315)">
<stop stop-color="#00A9FB"/>
<stop offset="0.22" stop-color="#0389F2"/>
<stop offset="0.57" stop-color="#075EE5"/>
<stop offset="0.84" stop-color="#0944DE"/>
<stop offset="1" stop-color="#0A3ADB"/>
</radialGradient>
<radialGradient id="paint1_radial_345_5829" cx="0" cy="0" r="1" gradientUnits="userSpaceOnUse" gradientTransform="translate(28.0317 -4.14328) rotate(45.7252) scale(28.4814 28.4723)">
<stop stop-color="#FFCA07"/>
<stop offset="0.1" stop-color="#FEC409"/>
<stop offset="0.22" stop-color="#FCB40D"/>
<stop offset="0.36" stop-color="#F89914"/>
<stop offset="0.51" stop-color="#F3731E"/>
<stop offset="0.6" stop-color="#F05B24"/>
<stop offset="0.74" stop-color="#DC4225"/>
<stop offset="0.9" stop-color="#C82A26"/>
<stop offset="1" stop-color="#C12126"/>
</radialGradient>
<radialGradient id="paint2_radial_345_5829" cx="0" cy="0" r="1" gradientUnits="userSpaceOnUse" gradientTransform="translate(34.5468 33.5623) rotate(45.7252) scale(14.1664 14.1619)">
<stop stop-color="#FFCA07"/>
<stop offset="0.1" stop-color="#FEC409"/>
<stop offset="0.22" stop-color="#FCB40D"/>
<stop offset="0.36" stop-color="#F89914"/>
<stop offset="0.51" stop-color="#F3731E"/>
<stop offset="0.6" stop-color="#F05B24"/>
<stop offset="0.74" stop-color="#DC4225"/>
<stop offset="0.9" stop-color="#C82A26"/>
<stop offset="1" stop-color="#C12126"/>
</radialGradient>
<radialGradient id="paint3_radial_345_5829" cx="0" cy="0" r="1" gradientUnits="userSpaceOnUse" gradientTransform="translate(25.3326 42.1095) scale(6.81564 6.9904)">
<stop stop-color="#FEBC11"/>
<stop offset="0.29" stop-color="#FE9916"/>
<stop offset="0.56" stop-color="#FF7F1A"/>
<stop offset="0.72" stop-color="#FF751B"/>
</radialGradient>
<radialGradient id="paint4_radial_345_5829" cx="0" cy="0" r="1" gradientUnits="userSpaceOnUse" gradientTransform="translate(32.9001 16.8301) scale(34.4234 35.3061)">
<stop stop-color="#FEBC11"/>
<stop offset="0.29" stop-color="#FE9916"/>
<stop offset="0.56" stop-color="#FF7F1A"/>
<stop offset="0.72" stop-color="#FF751B"/>
</radialGradient>
<linearGradient id="paint5_linear_345_5829" x1="18.7706" y1="2.06914" x2="25.9923" y2="9.11034" gradientUnits="userSpaceOnUse">
<stop stop-color="white"/>
<stop offset="0.12" stop-color="#FFF8F1"/>
<stop offset="0.36" stop-color="#FFE5CB"/>
<stop offset="0.68" stop-color="#FFC78F"/>
<stop offset="1" stop-color="#FFA64C"/>
</linearGradient>
<radialGradient id="paint6_radial_345_5829" cx="0" cy="0" r="1" gradientUnits="userSpaceOnUse" gradientTransform="translate(28.4168 -3.50871) rotate(45.7252) scale(27.0921 27.0834)">
<stop stop-color="#FFCA07"/>
<stop offset="0.1" stop-color="#FEC409"/>
<stop offset="0.22" stop-color="#FCB40D"/>
<stop offset="0.36" stop-color="#F89914"/>
<stop offset="0.51" stop-color="#F3731E"/>
<stop offset="0.6" stop-color="#F05B24"/>
<stop offset="0.74" stop-color="#DC4225"/>
<stop offset="0.9" stop-color="#C82A26"/>
<stop offset="1" stop-color="#C12126"/>
</radialGradient>
<radialGradient id="paint7_radial_345_5829" cx="0" cy="0" r="1" gradientUnits="userSpaceOnUse" gradientTransform="translate(14.2894 55.3678) rotate(45.7252) scale(29.842 29.8324)">
<stop stop-color="#FFCA07"/>
<stop offset="0.1" stop-color="#FEC409"/>
<stop offset="0.22" stop-color="#FCB40D"/>
<stop offset="0.36" stop-color="#F89914"/>
<stop offset="0.51" stop-color="#F3731E"/>
<stop offset="0.6" stop-color="#F05B24"/>
<stop offset="0.74" stop-color="#DC4225"/>
<stop offset="0.9" stop-color="#C82A26"/>
<stop offset="1" stop-color="#C12126"/>
</radialGradient>
<radialGradient id="paint8_radial_345_5829" cx="0" cy="0" r="1" gradientUnits="userSpaceOnUse" gradientTransform="translate(34.5735 33.5348) rotate(45.7252) scale(14.1521 14.1475)">
<stop stop-color="#FFCA07"/>
<stop offset="0.1" stop-color="#FEC409"/>
<stop offset="0.22" stop-color="#FCB40D"/>
<stop offset="0.36" stop-color="#F89914"/>
<stop offset="0.51" stop-color="#F3731E"/>
<stop offset="0.6" stop-color="#F05B24"/>
<stop offset="0.74" stop-color="#DC4225"/>
<stop offset="0.9" stop-color="#C82A26"/>
<stop offset="1" stop-color="#C12126"/>
</radialGradient>
<radialGradient id="paint9_radial_345_5829" cx="0" cy="0" r="1" gradientUnits="userSpaceOnUse" gradientTransform="translate(25.273 13.8344) rotate(45.7252) scale(24.5194 24.5115)">
<stop stop-color="#FFCA07"/>
<stop offset="0.1" stop-color="#FEC409"/>
<stop offset="0.22" stop-color="#FCB40D"/>
<stop offset="0.36" stop-color="#F89914"/>
<stop offset="0.51" stop-color="#F3731E"/>
<stop offset="0.6" stop-color="#F05B24"/>
<stop offset="0.74" stop-color="#DC4225"/>
<stop offset="0.9" stop-color="#C82A26"/>
<stop offset="1" stop-color="#C12126"/>
</radialGradient>
</defs>
</svg>
